# xmcd CD database file
#
# Track frame offsets:
#	150
#	18932
#	43647
#	65930
#	88095
#	104802
#	120325
#	148055
#	163020
#	181972
#
# Disc length: 2597 seconds
#
# Revision: 2
# Processed by: cddbd v1.5.1PL0 Copyright (c) Steve Scherf et al.
# Submitted via: CDex 1.51
#
DISCID=8d0a230a
DTITLE=ALPHAVILLE - The Breathtaking Blue
DYEAR=1900
DGENRE=Rock
TTITLE0=Summer Rain
TTITLE1=Romeos
TTITLE2=She Fades Away
TTITLE3=The Mysteries of Love
TTITLE4=Ariana
TTITLE5=Heaven or Hell
TTITLE6=For A Million
TTITLE7=Middle of the Riddle
TTITLE8=Patricia's Park
TTITLE9=Anyway
EXTD=
EXTT0=
EXTT1=
EXTT2=
EXTT3=
EXTT4=
EXTT5=
EXTT6=
EXTT7=
EXTT8=
EXTT9=
PLAYORDER=
